<svg width="64" height="64" viewBox="0 0 64 64" fill="none" xmlns="http://www.w3.org/2000/svg">
<g clip-path="url(#clip0_2052_2)">
<path d="M0 8C0 3.58172 3.58172 0 8 0H56C60.4183 0 64 3.58172 64 8V56C64 60.4183 60.4183 64 56 64H8C3.58172 64 0 60.4183 0 56V8Z" fill="#75D9FF"/>
<path d="M25 19.9999C16.9999 9.49993 5.49993 26.4999 13.5 29.9999C5.00009 33.9999 7.99999 47 19.4999 40.5C18.5 50.5 41.4998 53.5 42.4999 38.9999C48.9998 52 64.9998 34.5 53.9999 29.9999C64.9998 27 53.9999 16.5 43 22.9999C46.9999 10.9999 25 7.49984 25 19.9999Z" fill="white"/>
</g>
<defs>
<clipPath id="clip0_2052_2">
<rect width="64" height="64" fill="white"/>
</clipPath>
</defs>
</svg>
